<svg xmlns="http://www.w3.org/2000/svg" xmlns:xlink="http://www.w3.org/1999/xlink" width="1610" height="40" version="1.1" viewBox="0 0 1610 40"><title>gunrock_banner</title><desc>Created with Sketch.</desc><defs><polygon id="path-1" points="35 0 1609.425 0 1592 40 .576 40"/><linearGradient id="linearGradient-3" x1="0%" x2="100%" y1="49.995%" y2="49.995%"><stop offset="0%" stop-color="#A4B354"/><stop offset="17%" stop-color="#B7B44C"/><stop offset="53%" stop-color="#D7B33C"/><stop offset="59%" stop-color="#D8B542"/><stop offset="85%" stop-color="#DBBD5D"/><stop offset="100%" stop-color="#DCC167"/></linearGradient><linearGradient id="linearGradient-4" x1="0%" x2="99.992%" y1="50%" y2="50%"><stop offset="0%" stop-color="#408596"/><stop offset="30%" stop-color="#418798"/><stop offset="56%" stop-color="#438E9D"/><stop offset="81%" stop-color="#489AA6"/><stop offset="100%" stop-color="#4DA9B1"/></linearGradient><linearGradient id="linearGradient-5" x1="16.874%" x2="81.483%" y1="-33.563%" y2="129.21%"><stop offset="0%" stop-color="#172C52"/><stop offset="18%" stop-color="#182F54"/><stop offset="39%" stop-color="#1C385A"/><stop offset="60%" stop-color="#244765"/><stop offset="83%" stop-color="#2F5B76"/><stop offset="100%" stop-color="#3B7086"/></linearGradient><linearGradient id="linearGradient-6" x1="0%" x2="100.004%" y1="50%" y2="50%"><stop offset="0%" stop-color="#32627B"/><stop offset="65%" stop-color="#498F9E"/><stop offset="100%" stop-color="#55A9B2"/></linearGradient><linearGradient id="linearGradient-7" x1="0%" x2="100%" y1="50%" y2="50%"><stop offset="0%" stop-color="#32607A"/><stop offset="20%" stop-color="#377288"/><stop offset="60%" stop-color="#43A2B0"/><stop offset="100%" stop-color="#60A79C"/></linearGradient><linearGradient id="linearGradient-8" x1="1.499%" x2="95.807%" y1="36.597%" y2="58.676%"><stop offset="0%" stop-color="#6FB09A"/><stop offset="100%" stop-color="#A0B562"/></linearGradient></defs><g id="Current" fill="none" fill-rule="evenodd" stroke="none" stroke-width="1"><g id="gunrock_banner"><g id="Header"><mask id="mask-2" fill="#fff"><use xlink:href="#path-1"/></mask><g id="graphic" mask="url(#mask-2)"><g id="Layer_1"><g transform="translate(-308.678087, -75.000000)"><path id="Shape" fill="url(#linearGradient-3)" d="M2014.71668,138.180916 L1849.04391,0.330152672 L1337.53976,0.330152672 C1378.0438,80.3896947 1468.08403,157.241221 1661.2908,173.203053 L2014.71668,138.180916 L2014.71668,138.180916 Z"/><path id="Shape" fill="url(#linearGradient-4)" d="M1037.75986,149.714122 C1036.33784,166.082824 1035.6659,178.414122 1032.75936,193.030153 L1097.70334,193.030153 L1103.28202,83.0030534 C1066.15332,103.972519 982.895013,147.304198 904.902859,193.045802 L946.782036,193.045802 C1003.95961,163.031298 1037.75986,149.714122 1037.75986,149.714122 L1037.75986,149.714122 Z"/><path id="Shape" fill="url(#linearGradient-5)" d="M717.915458,193.045802 C788.047453,128.00916 864.383192,63.6610687 944.047388,6.82442748 L336.346148,6.82442748 C276.840213,52.7694656 219.146958,104.692366 164.454003,163.438168 C164.454003,163.438168 164.063339,174.188931 165.032186,193.045802 L717.915458,193.045802 L717.915458,193.045802 Z"/><path id="Shape" fill="url(#linearGradient-6)" d="M1105.0322,51.2671756 L1106.18856,33.5057252 C1107.87623,24.4450382 1111.18906,15.5408397 1115.78327,6.82442748 L940.922076,6.82442748 C861.25788,63.6610687 784.922141,128.00916 714.790146,193.045802 L861.914196,193.045802 C938.843744,140.183969 1023.52407,88.339313 1105.0322,51.2671756 Z"/><path id="Shape" fill="url(#linearGradient-7)" d="M915.857076,193.045802 C993.849231,147.304198 1064.59066,107.10229 1101.70374,86.1484733 L1096.12506,193.045802 L1273.34586,193.045802 C1248.85904,156.552672 1230.45096,110.638931 1222.73144,53.051145 C1222.73144,53.051145 1218.49664,36.5729008 1225.62235,6.82442748 L1114.22061,6.82442748 C1109.61078,15.5564885 1106.31357,24.460687 1104.6259,33.5057252 L1103.46954,51.2671756 C1021.97704,88.339313 937.296715,140.183969 860.35154,193.045802 L915.857076,193.045802 L915.857076,193.045802 Z"/><path id="Shape" fill="url(#linearGradient-8)" d="M1465.42027,119.140625 C1465.42027,119.140625 1400.43666,80.8748092 1362.96417,6.82442748 L1215.86949,67.4238281 C1215.86949,67.4238281 1247.29639,156.537023 1271.7832,193.045802 L1465.42027,119.140625 Z"/></g></g></g></g></g></g></svg>